:version 1.10
:name ASF
:units
  mass 1
  length 1
  angle deg
:documentation
  ASF file generated by Kaydara
:root
  axis xyz
  order  tx ty tz rx ry rz
  position 0 0 0
  orientation 0 0 0
:bonedata
  begin
    id 1
    name RightUpLegDummy
    direction -0.718183 -0.695806 0.00816078
    length 4.904
    axis 0 0 0 xyz
  end
  begin
    id 2
    name RightUpLeg
    direction -0.0736652 -0.994202 0.0783343
    length 17.4976
    axis -2.72909 -3.00389 -4.00133 xyz
    dof rx ry rz
  end
  begin
    id 3
    name RightLeg
    direction -0.0389037 -0.994596 -0.0962598
    length 16.5821
    axis 3.95836 -18.5909 -4.46993 xyz
    dof rx ry rz
  end
  begin
    id 4
    name RightFoot
    direction -0.311643 -0.412678 0.855906
    length 3.77069
    axis -1.99483 -18.8351 -3.27644 xyz
    dof rx ry rz
  end
  begin
    id 5
    name RightToes
    direction -0.317852 0.0389852 0.947339
    length 3.85082
    axis -2.00228 -18.1713 -3.25211 xyz
    dof rx ry rz
  end
  begin
    id 6
    name SpineDummy
    direction 8.3039e-015 1 4.44677e-016
    length 4.6813
    axis 0 0 0 xyz
  end
  begin
    id 7
    name Spine
    direction -0.000262373 0.999988 0.00493267
    length 10.1015
    axis -0.00246081 0.00062579 0.0150362 xyz
    dof rx ry rz
  end
  begin
    id 8
    name Spine1
    direction 0 0 0
    length 0
    axis -0.00349562 0.000650293 0.0196666 xyz
    dof rx ry rz
  end
  begin
    id 9
    name HEadDummy
    direction -0.000343232 0.999999 0.00123745
    length 3.43865
    axis -0.00349562 0.000650293 0.0196666 xyz
  end
  begin
    id 10
    name HEad
    direction -0.0461221 0.980933 0.188796
    length 5.12695
    axis -0.00351404 -7.04812 0.0199272 xyz
    dof rx ry rz
  end
  begin
    id 11
    name LeftShoulder1Dummy
    direction 0.998904 -0.0399089 -0.0244534
    length 3.5433
    axis -0.00349562 0.000650293 0.0196666 xyz
  end
  begin
    id 12
    name LeftShoulder1
    direction 0.99951 1.64443e-005 0.0312999
    length 4.05031
    axis -0.00349562 0.000650293 0.0196666 xyz
    dof rx ry rz
  end
  begin
    id 13
    name LeftArm
    direction 0.984791 0.0515299 0.165927
    length 12.9126
    axis -64.823 -10.7743 5.20463 xyz
    dof rx ry rz
  end
  begin
    id 14
    name LeftForeArm
    direction 0.984968 0.0534808 0.16425
    length 10.8596
    axis -30.0462 -7.70601 1.87451 xyz
    dof rx ry rz
  end
  begin
    id 15
    name LeftHand
    direction 0.975871 0.0289682 0.216418
    length 6.62295
    axis -20.1348 -6.98077 1.86072 xyz
    dof rx ry rz
  end
  begin
    id 16
    name RightShoulderDummy
    direction -0.998877 -0.0405946 -0.0244307
    length 3.5433
    axis -0.00349562 0.000650293 0.0196666 xyz
  end
  begin
    id 17
    name RightShoulder
    direction -0.998933 -0.0249743 -0.0388558
    length 4.05031
    axis -0.0205316 -4.02113 1.41395 xyz
    dof rx ry rz
  end
  begin
    id 18
    name RightArm
    direction -0.997559 0.068664 0.0127103
    length 12.9638
    axis -67.3882 1.84188 -6.15987 xyz
    dof rx ry rz
  end
  begin
    id 19
    name RightForeArm
    direction -0.991508 0.0912848 0.0926241
    length 10.8312
    axis -22.1975 3.41087 -4.28711 xyz
    dof rx ry rz
  end
  begin
    id 20
    name RightHand
    direction -0.989262 0.0600788 0.133232
    length 6.57864
    axis -12.2911 2.17515 -4.39675 xyz
    dof rx ry rz
  end
  begin
    id 21
    name LeftUpLegDummy
    direction 0.718183 -0.695806 0.00816078
    length 4.904
    axis 0 0 0 xyz
  end
  begin
    id 22
    name LeftUpLeg
    direction 0.0831398 -0.99469 0.0606531
    length 17.4976
    axis -1.71016 2.29552 4.63832 xyz
    dof rx ry rz
  end
  begin
    id 23
    name LeftLeg
    direction 0.0498442 -0.991778 -0.117862
    length 16.5821
    axis 5.13757 15.5727 5.13348 xyz
    dof rx ry rz
  end
  begin
    id 24
    name LeftFoot
    direction 0.269026 -0.433896 0.85986
    length 3.77069
    axis -0.576502 15.6961 4.10267 xyz
    dof rx ry rz
  end
  begin
    id 25
    name LeftToes
    direction 0.277311 0.0251143 0.960452
    length 3.85048
    axis -0.576502 15.6961 4.10267 xyz
    dof rx ry rz
  end
:hierarchy
  begin
    root RightUpLegDummy SpineDummy LeftUpLegDummy
    RightUpLegDummy RightUpLeg
    RightUpLeg RightLeg
    RightLeg RightFoot
    RightFoot RightToes
    SpineDummy Spine
    Spine Spine1
    Spine1 HEadDummy LeftShoulder1Dummy RightShoulderDummy
    HEadDummy HEad
    LeftShoulder1Dummy LeftShoulder1
    LeftShoulder1 LeftArm
    LeftArm LeftForeArm
    LeftForeArm LeftHand
    RightShoulderDummy RightShoulder
    RightShoulder RightArm
    RightArm RightForeArm
    RightForeArm RightHand
    LeftUpLegDummy LeftUpLeg
    LeftUpLeg LeftLeg
    LeftLeg LeftFoot
    LeftFoot LeftToes
  end

:SAMPLES-PER-SECOND 30
:FULLY-SPECIFIED
:DEGREES
20
root  -1.29088 6.12782 15.688 -44.4619 -2.31599 3.42381
RightUpLeg  -87.8189 0.340331 -4.87482
RightLeg  86.0479 15.7774 -6.86266
RightFoot  33.4726 0.844033 -2.27747
RightToes  5.82077e-011 -3.18055e-015 -2.98177e-016
Spine  32.2327 1.67383 5.88654
Spine1  18.5161 2.47313 -3.18757
HEad  -17.5913 -1.85019 3.27816
LeftShoulder1  -3.88251e-019 9.70628e-020 -3.87848e-018
LeftArm  -12.4956 74.373 -56.6264
LeftForeArm  21.1027 -1.41793 -4.03786
LeftHand  -12.8213 -11.194 77.9112
RightShoulder  5.94318 10.2595 27.8168
RightArm  -3.04227 -62.3322 19.1844
RightForeArm  1.57064 2.08444 -6.35872
RightHand  -6.4357 4.93744 -64.2107
LeftUpLeg  -89.5807 3.21188 0.381865
LeftLeg  91.9634 -13.8842 5.20862
LeftFoot  35.6882 1.37109 -2.79233
LeftToes  5.91571e-011 -3.44359e-011 -3.93244e-011
21
root  -1.27277 6.08739 15.6366 -44.68 -2.29624 3.53196
RightUpLeg  -87.654 0.252975 -4.95271
RightLeg  85.9315 15.767 -6.69285
RightFoot  33.7423 0.740939 -2.02812
RightToes  5.82077e-011 -3.18055e-015 -2.98177e-016
Spine  32.4224 1.8505 6.15955
Spine1  18.0725 2.54687 -2.95157
HEad  -17.7239 -1.97689 3.64508
LeftShoulder1  -3.88251e-019 9.70628e-020 -3.87848e-018
LeftArm  -12.8799 73.8685 -57.0441
LeftForeArm  21.5491 -0.975222 -4.03006
LeftHand  -12.7404 -11.0732 77.9752
RightShoulder  5.82558 10.2008 27.2951
RightArm  -4.67556 -62.5317 20.5216
RightForeArm  3.06762 0.372197 -6.51205
RightHand  -7.18581 5.79474 -65.8004
LeftUpLeg  -89.3795 3.44723 0.0938724
LeftLeg  91.7813 -13.8796 5.3298
LeftFoot  35.6899 1.30837 -2.6539
LeftToes  5.91571e-011 -3.44359e-011 -3.93244e-011
22
root  -1.27559 6.06776 15.5885 -44.8881 -2.10805 3.48615
RightUpLeg  -87.4269 0.0604372 -5.05443
RightLeg  85.8506 15.76 -6.56015
RightFoot  34.0995 0.714134 -1.95321
RightToes  5.82077e-011 -3.18055e-015 -2.98177e-016
Spine  32.386 1.8707 6.28305
Spine1  17.9128 2.56611 -2.84416
HEad  -17.7729 -1.80809 4.23085
LeftShoulder1  -3.88251e-019 9.70628e-020 -3.87848e-018
LeftArm  -13.8463 73.2765 -57.8209
LeftForeArm  22.4862 -0.959765 -3.65609
LeftHand  -12.9657 -11.3785 77.9045
RightShoulder  5.81422 10.2162 27.203
RightArm  -5.79007 -62.531 21.2687
RightForeArm  5.13097 -1.15599 -6.66834
RightHand  -8.47183 7.13299 -68.5919
LeftUpLeg  -89.1518 3.52758 -0.235911
LeftLeg  91.6418 -13.8579 5.19849
LeftFoot  35.6545 1.1879 -2.39061
LeftToes  5.91571e-011 -3.44359e-011 -3.93244e-011
23
root  -1.29124 6.06161 15.5428 -45.0289 -1.89094 3.32945
RightUpLeg  -87.2061 -0.10391 -5.10103
RightLeg  85.7698 15.753 -6.43354
RightFoot  34.4601 0.716119 -1.94477
RightToes  5.82077e-011 -3.18055e-015 -2.98177e-016
Spine  32.418 1.70297 6.37263
Spine1  17.4331 2.53126 -3.02239
HEad  -17.2769 -1.57025 4.8705
LeftShoulder1  -3.88251e-019 9.70628e-020 -3.87848e-018
LeftArm  -14.8199 72.9498 -58.2356
LeftForeArm  23.5553 -0.87234 -3.09688
LeftHand  -13.1086 -11.6655 77.5424
RightShoulder  5.89579 10.3019 27.4784
RightArm  -6.59347 -62.2912 21.5443
RightForeArm  7.28621 -2.80014 -6.80077
RightHand  -9.64562 8.24321 -71.085
LeftUpLeg  -88.9595 3.53662 -0.45977
LeftLeg  91.4564 -13.8381 5.12373
LeftFoot  35.6273 1.16777 -2.3479
LeftToes  5.91571e-011 -3.44359e-011 -3.93244e-011
24
root  -1.30329 6.06089 15.4933 -45.0603 -1.93645 3.16074
RightUpLeg  -87.0161 -0.121871 -4.91214
RightLeg  85.5403 15.7306 -6.4105
RightFoot  34.7091 0.655282 -1.79899
RightToes  5.82077e-011 -3.18055e-015 -2.98177e-016
Spine  32.749 1.58235 6.58032
Spine1  16.2326 2.50787 -3.17242
HEad  -16.2995 -1.56601 5.27546
LeftShoulder1  -3.88251e-019 9.70628e-020 -3.87848e-018
LeftArm  -15.242 72.9101 -58.0333
LeftForeArm  24.4583 -0.811023 -2.68797
LeftHand  -13.0777 -11.7076 77.2677
RightShoulder  5.96627 10.3666 27.7323
RightArm  -6.68166 -62.2265 21.0922
RightForeArm  8.35585 -3.76609 -6.88368
RightHand  -10.0231 8.57354 -71.8683
LeftUpLeg  -88.8755 3.67446 -0.382701
LeftLeg  91.2395 -13.828 5.21089
LeftFoot  35.5655 1.28058 -2.60115
LeftToes  5.91571e-011 -3.44359e-011 -3.93244e-011
25
root  -1.30739 6.05909 15.4415 -45.0493 -2.14165 3.06561
RightUpLeg  -86.8411 -0.0854321 -4.64153
RightLeg  85.1799 15.6917 -6.5909
RightFoot  34.821 0.501884 -1.45121
RightToes  5.82077e-011 -3.18055e-015 -2.98177e-016
Spine  33.1856 1.60711 6.81336
Spine1  14.8581 2.54376 -3.14301
HEad  -15.2974 -1.7894 5.45055
LeftShoulder1  -3.88251e-019 9.70628e-020 -3.87848e-018
LeftArm  -15.4933 72.8353 -57.7825
LeftForeArm  25.2837 -0.777317 -2.42871
LeftHand  -13.0619 -11.68 77.2926
RightShoulder  5.96854 10.3655 27.7465
RightArm  -5.86192 -62.5939 19.9748
RightForeArm  8.11329 -3.51415 -6.86787
RightHand  -9.83036 8.41754 -71.4132
LeftUpLeg  -88.8393 3.88645 -0.18606
LeftLeg  91.059 -13.8188 5.27933
LeftFoot  35.473 1.38988 -2.84943
LeftToes  5.91571e-011 -3.44359e-011 -3.93244e-011
26
root  -1.30943 6.0533 15.4086 -45.1121 -2.20007 3.05628
RightUpLeg  -86.6895 -0.163251 -4.55306
RightLeg  84.951 15.661 -6.91033
RightFoot  34.8375 0.262509 -0.913963
RightToes  5.82077e-011 -3.18055e-015 -2.98177e-016
Spine  33.3887 1.62743 6.90587
Spine1  14.0917 2.59757 -3.1535
HEad  -14.3319 -1.96604 5.59032
LeftShoulder1  -3.88251e-019 9.70628e-020 -3.87848e-018
LeftArm  -16.0608 72.6306 -57.8927
LeftForeArm  26.0579 -0.732677 -2.11644
LeftHand  -13.0877 -11.7026 77.3273
RightShoulder  5.9148 10.3274 27.5313
RightArm  -4.81425 -63.197 18.992
RightForeArm  7.75611 -2.77605 -6.74979
RightHand  -9.83955 8.43036 -71.4106
LeftUpLeg  -88.7381 3.96217 -0.151761
LeftLeg  90.9671 -13.809 5.24142
LeftFoot  35.4308 1.41725 -2.91325
LeftToes  5.91571e-011 -3.44359e-011 -3.93244e-011
27
root  -1.31303 6.04881 15.4135 -45.2548 -2.10052 3.06878
RightUpLeg  -86.5887 -0.388629 -4.57286
RightLeg  85.0264 15.6632 -7.16413
RightFoot  34.7963 -0.0230081 -0.273603
RightToes  5.82077e-011 -3.18055e-015 -2.98177e-016
Spine  33.3314 1.54413 6.88521
Spine1  13.9166 2.59298 -3.3006
HEad  -13.259 -1.93662 5.70545
LeftShoulder1  -3.88251e-019 9.70628e-020 -3.87848e-018
LeftArm  -16.3916 72.5908 -57.9163
LeftForeArm  26.4301 -0.698382 -1.89926
LeftHand  -13.0437 -11.6854 77.1957
RightShoulder  5.84348 10.2966 27.206
RightArm  -4.25594 -63.7574 18.6715
RightForeArm  8.09284 -2.36048 -6.64396
RightHand  -10.195 8.71649 -72.2426
LeftUpLeg  -88.5914 3.87568 -0.219742
LeftLeg  90.9764 -13.8124 5.27772
LeftFoot  35.4195 1.42499 -2.93128
LeftToes  5.91571e-011 -3.44359e-011 -3.93244e-011
